<?xml version="1.0" encoding="UTF-8"?>
<svg width="106px" height="34px" viewBox="0 0 106 34" version="1.1" xmlns="http://www.w3.org/2000/svg" xmlns:xlink="http://www.w3.org/1999/xlink">
    <!-- Generator: Sketch 55.2 (78181) - https://sketchapp.com -->
    <title>logo-black</title>
    <desc>Created with Sketch.</desc>
    <defs>
        <rect id="path-1" x="0" y="0" width="33.9404032" height="34" rx="16.9702016"></rect>
        <polygon id="path-3" points="0.000121428571 0.182142857 6.87297857 0.182142857 6.87297857 19.4283286 0.000121428571 19.4283286"></polygon>
        <polygon id="path-5" points="0.2465 0.182142857 7.10721429 0.182142857 7.10721429 13.4419 0.2465 13.4419"></polygon>
    </defs>
    <g id="Home-Page-" stroke="none" stroke-width="1" fill="none" fill-rule="evenodd">
        <g id="logo-black">
            <path d="M53.9040876,8.5 C55.3215519,8.5 56.5998594,8.82609886 57.7390485,9.47830636 C58.8782377,10.1305139 59.7674005,11.0348947 60.4065639,12.191476 C61.0457272,13.3480573 61.3653041,14.6394088 61.3653041,16.0655692 C61.3653041,18.2308981 60.6587566,20.0353118 59.2456403,21.4788644 C57.8325241,22.922417 56.0520243,23.6441825 53.9040876,23.6441825 C52.0518183,23.6441825 50.4517599,23.0615525 49.1038644,21.8962751 L49.1038644,28.4444057 L46.1428571,28.4444057 L46.1428571,8.85219029 L48.1386021,8.85219029 L48.6994978,10.6261858 C49.3604014,9.94789002 50.1365167,9.42395786 51.0278669,9.0543736 C51.9192172,8.68478935 52.8779478,8.5 53.9040876,8.5 Z M50.277832,19.4439872 C51.1822264,20.3483816 52.3127025,20.800572 53.6692941,20.800572 C55.0258857,20.800572 56.1476658,20.3505556 57.034668,19.4505092 C57.9216702,18.5504629 58.3651646,17.4221608 58.3651646,16.0655692 C58.3651646,14.7089776 57.9216702,13.5806755 57.034668,12.6806292 C56.1476658,11.7805828 55.0258857,11.3305664 53.6692941,11.3305664 C52.3127025,11.3305664 51.1844004,11.7827568 50.2843541,12.6871512 C49.3843077,13.5915456 48.9342913,14.7176737 48.9342913,16.0655692 C48.9342913,17.4134647 49.3821337,18.5395928 50.277832,19.4439872 Z M75.2911691,8.83914621 L77.5738839,8.85219029 L77.5738839,23.265904 L75.1868164,23.265904 L74.8998465,21.5179967 C74.2389429,22.1875964 73.4606537,22.7071805 72.5649554,23.0767648 C71.6692571,23.446349 70.7040044,23.6311384 69.6691685,23.6311384 C68.2604003,23.6311384 66.9820928,23.3028655 65.8342076,22.64631 C64.6863224,21.9897544 63.7862895,21.0810256 63.134082,19.9200963 C62.4818745,18.7591669 62.1557757,17.4699894 62.1557757,16.0525251 C62.1557757,14.6263647 62.4818745,13.3371872 63.134082,12.184954 C63.7862895,11.0327207 64.6863224,10.1305139 65.8342076,9.47830636 C66.9820928,8.82609886 68.2604003,8.5 69.6691685,8.5 C70.7127005,8.5 71.6866491,8.68696335 72.5910435,9.06089565 C73.4954379,9.43482795 74.2780752,9.96528209 74.9389788,10.652274 L75.2911691,8.83914621 Z M66.5125,19.4439872 C67.4081983,20.3396855 68.5343264,20.7875279 69.890918,20.7875279 C71.2475096,20.7875279 72.3714636,20.3375115 73.2628139,19.4374651 C74.1541641,18.5374188 74.5998326,17.4091167 74.5998326,16.0525251 C74.5998326,14.6959335 74.1541641,13.5698054 73.2628139,12.6741071 C72.3714636,11.7784088 71.2475096,11.3305664 69.890918,11.3305664 C68.5343264,11.3305664 67.4081983,11.7805828 66.5125,12.6806292 C65.6168017,13.5806755 65.1689593,14.7046296 65.1689593,16.0525251 C65.1689593,17.4091167 65.6168017,18.5395928 66.5125,19.4439872 Z M88.2256836,8.5 C89.6431479,8.5 90.9214554,8.82609886 92.0606445,9.47830636 C93.1998336,10.1305139 94.0889965,11.0348947 94.7281599,12.191476 C95.3673232,13.3480573 95.6869001,14.6394088 95.6869001,16.0655692 C95.6869001,18.2308981 94.9803526,20.0353118 93.5672363,21.4788644 C92.1541201,22.922417 90.3736203,23.6441825 88.2256836,23.6441825 C86.3734143,23.6441825 84.7733559,23.0615525 83.4254604,21.8962751 L83.4254604,28.4444057 L80.4644531,28.4444057 L80.4644531,8.85219029 L82.4601981,8.85219029 L83.0210938,10.6261858 C83.6819974,9.94789002 84.4581126,9.42395786 85.3494629,9.0543736 C86.2408131,8.68478935 87.1995438,8.5 88.2256836,8.5 Z M84.599428,19.4439872 C85.5038224,20.3483816 86.6342985,20.800572 87.9908901,20.800572 C89.3474817,20.800572 90.4692617,20.3505556 91.356264,19.4505092 C92.2432662,18.5504629 92.6867606,17.4221608 92.6867606,16.0655692 C92.6867606,14.7089776 92.2432662,13.5806755 91.356264,12.6806292 C90.4692617,11.7805828 89.3474817,11.3305664 87.9908901,11.3305664 C86.6342985,11.3305664 85.5059964,11.7827568 84.6059501,12.6871512 C83.7059037,13.5915456 83.2558873,14.7176737 83.2558873,16.0655692 C83.2558873,17.4134647 83.7037297,18.5395928 84.599428,19.4439872 Z M104.460352,8.77392578 L105.738672,8.77392578 L105.738672,11.578404 L104.173382,11.578404 C102.955928,11.578404 102.038503,11.9175468 101.42108,12.5958426 C100.803657,13.2741384 100.49495,14.269827 100.49495,15.5829381 L100.49495,23.2789481 L97.5339425,23.2789481 L97.5339425,8.85219029 L99.5427316,8.85219029 L100.038407,10.8218471 C101.064547,9.45655939 102.538513,8.77392578 104.460352,8.77392578 Z" id="papr" fill="#121213" fill-rule="nonzero"></path>
            <g id="Icon">
                <mask id="mask-2" fill="white">
                    <use xlink:href="#path-1"></use>
                </mask>
                <use id="Rectangle" fill="#FF1D50" xlink:href="#path-1"></use>
                <g id="icon" mask="url(#mask-2)">
                    <g transform="translate(10.928571, 7.285714)">
                        <g id="Group-3" transform="translate(0.000000, 1.032143)">
                            <mask id="mask-4" fill="white">
                                <use xlink:href="#path-3"></use>
                            </mask>
                            <g id="Clip-2"></g>
                            <path d="M6.87297857,0.1819 L6.87297857,12.7983286 C6.87297857,13.0169 6.86083571,13.2233286 6.83655,13.4419 C6.50869286,16.7933286 3.57012143,19.4283286 0.000121428571,19.4283286 L0.000121428571,6.8119 C0.000121428571,6.59332857 0.0122642857,6.37475714 0.03655,6.16832857 C0.364407143,2.8169 3.30297857,0.1819 6.87297857,0.1819" id="Fill-1" fill="#FFFFFF" mask="url(#mask-4)"></path>
                        </g>
                        <g id="Group-6" transform="translate(7.285714, 1.032143)">
                            <mask id="mask-6" fill="white">
                                <use xlink:href="#path-5"></use>
                            </mask>
                            <g id="Clip-5"></g>
                            <path d="M7.10721429,6.8119 C7.10721429,10.4790429 4.03507143,13.4419 0.2465,13.4419 L0.2465,0.1819 C4.03507143,0.1819 7.10721429,3.1569 7.10721429,6.8119" id="Fill-4" fill="#FFFFFF" opacity="0.600000024" mask="url(#mask-6)"></path>
                        </g>
                    </g>
                </g>
            </g>
        </g>
    </g>
</svg>