<?xml version="1.0" encoding="utf-8"?>
<!-- Generator: Adobe Illustrator 21.1.0, SVG Export Plug-In . SVG Version: 6.00 Build 0)  -->
<svg version="1.1" id="Icons" xmlns="http://www.w3.org/2000/svg" xmlns:xlink="http://www.w3.org/1999/xlink" x="0px" y="0px"
	 width="48px" height="17.7px" viewBox="0 0 48 17.7" style="enable-background:new 0 0 48 17.7;" xml:space="preserve">
<style type="text/css">
	.st0{fill:#FFFFFF;}
</style>
<g>
	<path class="st0" d="M5.1,7.8L1,7.8c-0.6,0-1,0.5-1,1c0,0.4,0.2,0.7,0.5,0.9C0.6,9.8,0.8,9.9,1,9.9l4.1,0c0.6,0,1-0.5,1-1
		C6.1,8.3,5.7,7.8,5.1,7.8z"/>
	<path class="st0" d="M48,8.6C48,8.6,48,8.6,48,8.6c0-0.1,0-0.1-0.1-0.2c0,0,0,0,0-0.1c0,0,0-0.1-0.1-0.1c0,0,0,0-0.1-0.1
		c0,0,0-0.1-0.1-0.1l-7.8-7.8c-0.4-0.4-1-0.4-1.4,0c-0.4,0.4-0.4,1,0,1.4l6.1,6.1l-33.4,0c-0.6,0-1,0.5-1,1c0,0.4,0.2,0.7,0.5,0.9
		c0.2,0.1,0.3,0.1,0.5,0.1l33.4,0l-6.1,6.1c-0.4,0.4-0.4,1,0,1.4c0.1,0.1,0.1,0.1,0.2,0.2c0.4,0.2,0.9,0.2,1.2-0.2l7.8-7.8
		c0,0,0,0,0,0c0,0,0.1-0.1,0.1-0.1c0,0,0-0.1,0-0.1c0,0,0-0.1,0-0.1c0,0,0-0.1,0-0.1c0,0,0-0.1,0-0.1C48,8.9,48,8.8,48,8.6z"/>
</g>
</svg>
